<svg width="16" height="17" viewBox="0 0 16 17" fill="none" xmlns="http://www.w3.org/2000/svg">
<path d="M8.00406 11.9055C9.63269 11.9055 10.953 10.5853 10.953 8.95664C10.953 7.32801 9.63269 6.00775 8.00406 6.00775C6.37544 6.00775 5.05518 7.32801 5.05518 8.95664C5.05518 10.5853 6.37544 11.9055 8.00406 11.9055Z" fill="#9C41F4"/>
<path d="M8.00412 4.72742C7.67371 4.72742 7.40112 4.45484 7.40112 4.12443V1.55551C7.40112 1.2251 7.67371 0.952515 8.00412 0.952515C8.33452 0.952515 8.60711 1.2251 8.60711 1.55551V4.12443C8.60711 4.4631 8.33452 4.72742 8.00412 4.72742Z" fill="#9C41F4"/>
<path d="M5.01387 5.96645C4.78259 6.19773 4.39436 6.19773 4.16307 5.96645L2.34583 4.1492C2.11454 3.91792 2.11454 3.52969 2.34583 3.2984C2.57711 3.06712 2.96534 3.06712 3.19663 3.2984L5.01387 5.11565C5.25342 5.34693 5.25342 5.73516 5.01387 5.96645Z" fill="#9C41F4"/>
<path d="M3.77491 8.95663C3.77491 9.28704 3.50232 9.55963 3.17191 9.55963H0.602995C0.272587 9.55963 0 9.28704 0 8.95663C0 8.62622 0.272587 8.35364 0.602995 8.35364H3.17191C3.51058 8.35364 3.77491 8.61796 3.77491 8.95663Z" fill="#9C41F4"/>
<path d="M5.01387 11.9386C5.24516 12.1699 5.24516 12.5581 5.01387 12.7894L3.19663 14.6066C2.96534 14.8379 2.57711 14.8379 2.34583 14.6066C2.11454 14.3753 2.11454 13.9871 2.34583 13.7558L4.16307 11.9386C4.39436 11.7073 4.78259 11.7073 5.01387 11.9386Z" fill="#9C41F4"/>
<path d="M8.00412 13.1776C8.33452 13.1776 8.60711 13.4502 8.60711 13.7806V16.3495C8.60711 16.6799 8.33452 16.9525 8.00412 16.9525C7.67371 16.9525 7.40112 16.6799 7.40112 16.3495V13.7806C7.40112 13.4419 7.66545 13.1776 8.00412 13.1776Z" fill="#9C41F4"/>
<path d="M10.986 11.9386C11.2172 11.7073 11.6055 11.7073 11.8368 11.9386L13.654 13.7558C13.8853 13.9871 13.8853 14.3753 13.654 14.6066C13.4227 14.8379 13.0345 14.8379 12.8032 14.6066L10.986 12.7894C10.7547 12.5581 10.7547 12.1699 10.986 11.9386Z" fill="#9C41F4"/>
<path d="M12.2251 8.95663C12.2251 8.62622 12.4977 8.35364 12.8281 8.35364H15.397C15.7274 8.35364 16 8.62622 16 8.95663C16 9.28704 15.7274 9.55963 15.397 9.55963H12.8281C12.4894 9.55137 12.2251 9.28704 12.2251 8.95663Z" fill="#9C41F4"/>
<path d="M10.986 5.96645C10.7547 5.73516 10.7547 5.34693 10.986 5.11565L12.8032 3.2984C13.0345 3.06712 13.4227 3.06712 13.654 3.2984C13.8853 3.52969 13.8853 3.91792 13.654 4.1492L11.8368 5.96645C11.6055 6.20599 11.2255 6.20599 10.986 5.96645Z" fill="#9C41F4"/>
</svg>
