<svg viewBox="0 0 18 17" fill="none"
  xmlns="http://www.w3.org/2000/svg" class="SvgIconAdaptive_svg__3gHSl">
  <path d="M9.53 3.97a.75.75 0 00-1.06 1.06l.166.167a.75.75 0 001.061-1.06L9.53 3.97zM11.364 5.803a.75.75 0 00-1.061 1.06l.333.334a.75.75 0 001.061-1.06l-.333-.334zM13.364 7.803a.75.75 0 00-1.061 1.06l.167.167a.75.75 0 101.06-1.06l-.166-.167z" fill="#C78D2B"></path>
  <path fill-rule="evenodd" clip-rule="evenodd" d="M12.455 1.288l.529.529c.174.174.186.447.103.678a1.5 1.5 0 001.918 1.918c.231-.083.504-.07.678.103l.529.53a3 3 0 010 4.242l-6.424 6.424a3 3 0 01-4.243 0l-.529-.53c-.174-.173-.186-.446-.103-.678a1.5 1.5 0 00-1.917-1.917c-.232.083-.505.07-.679-.103l-.529-.53a3 3 0 010-4.242l6.424-6.424a3 3 0 014.243 0zM3.5 11c-.17 0-.339.014-.503.042l-.148-.148a1.5 1.5 0 010-2.122L9.273 2.35a1.5 1.5 0 012.121 0l.148.148a3 3 0 003.461 3.461l.148.148a1.5 1.5 0 010 2.121l-6.424 6.424a1.5 1.5 0 01-2.121 0l-.148-.148A3 3 0 003.5 11z" fill="#C78D2B"></path>
</svg>