<svg width="25" height="24" viewBox="0 0 25 24" fill="none" xmlns="http://www.w3.org/2000/svg">
<path d="M17.7767 1H9.61454C8.45951 1 7.5355 1.92402 7.5355 3.07904V16.8623C7.5355 18.0174 8.45951 18.9414 9.61454 18.9414H20.1638C21.3188 18.9414 22.2428 18.0174 22.2428 16.8623V5.46609" stroke="#9C41F4" stroke-width="2" stroke-linecap="round" stroke-linejoin="round"/>
<path d="M17.7767 1V4.00306C17.7767 4.77308 18.3927 5.46609 19.2397 5.46609H22.2428" stroke="#9C41F4" stroke-width="2" stroke-linecap="round" stroke-linejoin="round"/>
<path d="M17.7767 1L22.2428 5.46609" stroke="#9C41F4" stroke-width="2" stroke-linecap="round" stroke-linejoin="round"/>
<path d="M13.7181 5.05863H5.55594C4.40092 5.05863 3.4769 5.98265 3.4769 7.13767V20.921C3.4769 22.076 4.40092 23 5.55594 23H16.1052C17.2602 23 18.1842 22.076 18.1842 20.921V9.52472" stroke="#9C41F4" stroke-width="2" stroke-linecap="round" stroke-linejoin="round"/>
<path d="M13.7181 5.05863V8.06169C13.7181 8.83171 14.3341 9.52472 15.1811 9.52472H18.1842" stroke="#9C41F4" stroke-width="2" stroke-linecap="round" stroke-linejoin="round"/>
<path d="M13.7181 5.05863L18.1842 9.52472" stroke="#9C41F4" stroke-width="2" stroke-linecap="round" stroke-linejoin="round"/>
</svg>
