<svg viewBox="0 0 18 18" fill="none"
  xmlns="http://www.w3.org/2000/svg" class="SvgIconAdaptive_svg__3gHSl">
  <path d="M9 18c4.988 0 9-4.012 9-9s-4.012-9-9-9-9 4.012-9 9 4.012 9 9 9z" fill="#2775CA" class="icon-token-usdc_svg__mainColor"></path>
  <path d="M11.475 10.425c0-1.313-.788-1.763-2.363-1.95-1.125-.15-1.35-.45-1.35-.975 0-.525.375-.863 1.125-.863.675 0 1.05.225 1.238.788.037.112.15.187.262.187h.6c.15 0 .263-.112.263-.262v-.038a1.873 1.873 0 00-1.688-1.537v-.9c0-.15-.112-.263-.3-.3H8.7c-.15 0-.263.112-.3.3v.862c-1.125.15-1.838.9-1.838 1.838 0 1.238.75 1.725 2.325 1.913 1.05.187 1.388.412 1.388 1.012 0 .6-.525 1.012-1.238 1.012-.975 0-1.312-.412-1.425-.975-.037-.15-.15-.225-.262-.225h-.638a.256.256 0 00-.262.263v.038c.15.937.75 1.612 1.987 1.8v.9c0 .15.113.262.3.3H9.3c.15 0 .262-.113.3-.3v-.9c1.125-.188 1.875-.976 1.875-1.988z" fill="#fff"></path>
  <path d="M7.088 14.362c-2.926-1.05-4.426-4.312-3.338-7.2a5.547 5.547 0 013.338-3.337c.15-.075.224-.188.224-.375v-.525c0-.15-.074-.263-.224-.3-.038 0-.113 0-.15.037-3.563 1.125-5.513 4.913-4.388 8.476a6.746 6.746 0 004.387 4.387c.15.075.3 0 .338-.15.037-.037.037-.075.037-.15V14.7c0-.113-.112-.262-.224-.338zm3.974-11.7c-.15-.075-.3 0-.337.15-.037.038-.037.075-.037.15v.525c0 .15.112.3.224.375 2.925 1.05 4.425 4.313 3.338 7.2a5.547 5.547 0 01-3.338 3.338c-.15.075-.225.187-.225.375v.525c0 .15.075.262.226.3.037 0 .112 0 .15-.037 3.562-1.126 5.512-4.913 4.387-8.476a6.801 6.801 0 00-4.387-4.425z" fill="#fff"></path>
</svg>