<svg viewBox="0 0 16 17" fill="none"
  xmlns="http://www.w3.org/2000/svg" class="SvgIconAdaptive_svg__3gHSl">
  <path fill-rule="evenodd" clip-rule="evenodd" d="M1.514 5.13c-.053 1.242.02 3.272.77 5.178.808 2.053 2.4 3.988 5.716 4.665 3.317-.677 4.908-2.612 5.716-4.665.75-1.906.823-3.936.77-5.178-.535-.124-1.195-.344-1.81-.744-.702-.457-1.35-1.157-1.659-2.155-2-.308-4.034-.308-6.034 0-.308.998-.957 1.698-1.658 2.155-.616.4-1.276.62-1.811.744zM4.028.872a21.364 21.364 0 017.944 0c.207.04.354.227.38.441.208 1.756 1.887 2.275 2.85 2.429.386.062.716.351.748.75.195 2.427.22 10.545-7.95 12.008C-.17 15.037-.145 6.92.05 4.492c.032-.399.362-.688.748-.75.963-.154 2.642-.673 2.85-2.429.026-.214.173-.401.38-.44z" fill="#54C858"></path>
</svg>