<svg width="25" height="24" viewBox="0 0 25 24" fill="none" xmlns="http://www.w3.org/2000/svg">
<g clip-path="url(#clip0_5_167)">
<path fill-rule="evenodd" clip-rule="evenodd" d="M5.24741 3.75C4.87241 1.8 6.37241 0 8.32241 0C10.0474 0 11.4724 1.425 11.4724 3.15V7.05C11.9224 7.05 12.3724 6.975 12.8224 6.975C13.2724 6.975 13.6474 6.975 14.0974 7.05V3.15C14.0974 1.425 15.5224 0 17.2474 0C19.1974 0 20.6974 1.8 20.3974 3.75L19.5724 8.325C22.4974 9.6 24.7474 11.85 24.7474 14.625V16.35C24.7474 18.675 23.2474 20.625 21.0724 21.9C18.8974 23.25 16.0474 24 12.8224 24C9.59741 24 6.74741 23.25 4.57241 21.9C2.47241 20.625 0.972412 18.675 0.972412 16.35V14.625C0.972412 11.85 3.14741 9.6 6.07241 8.325L5.24741 3.75ZM18.4474 8.925L19.4224 3.525C19.6474 2.175 18.6724 0.9 17.2474 0.9C16.0474 0.9 15.0724 1.875 15.0724 3.075V8.025C14.7724 7.95 14.3974 7.95 14.0974 7.95C13.6474 7.95 13.2724 7.875 12.8224 7.875C12.3724 7.875 11.9224 7.875 11.4724 7.95C11.1724 7.95 10.7974 8.025 10.4974 8.025V3.15C10.4974 1.95 9.52241 0.975 8.32241 0.975C6.97241 0.975 5.92241 2.25 6.22241 3.6L7.19741 9C4.04741 10.2 1.94741 12.3 1.94741 14.7V16.425C1.94741 20.1 6.82241 23.1 12.8224 23.1C18.8224 23.1 23.6974 20.1 23.6974 16.425V14.7C23.7724 12.225 21.6724 10.125 18.4474 8.925Z" fill="#633001"/>
<path d="M23.7723 16.35C23.7723 20.025 18.8973 23.025 12.8973 23.025C6.89734 23.025 2.02234 20.025 2.02234 16.35V14.625H23.8473V16.35H23.7723Z" fill="#FEDC90"/>
<path fill-rule="evenodd" clip-rule="evenodd" d="M6.22234 3.6C5.92234 2.25 6.97234 0.974998 8.32234 0.974998C9.52234 0.974998 10.4973 1.95 10.4973 3.15V8.1C11.2473 8.025 11.9973 7.95 12.8223 7.95C13.5723 7.95 14.3223 8.025 15.0723 8.1V3.15C15.0723 1.95 16.0473 0.974998 17.2473 0.974998C18.5973 0.974998 19.6473 2.25 19.4223 3.6L18.4473 9C21.5973 10.2 23.7723 12.3 23.7723 14.7C23.7723 18.375 18.8973 21.375 12.8973 21.375C6.89734 21.375 2.02234 18.375 2.02234 14.7C2.02234 12.3 4.12234 10.2 7.27234 9L6.22234 3.6Z" fill="#D1884F"/>
<path d="M9.82236 14.175C9.82236 15.15 9.29736 15.975 8.62236 15.975C7.94736 15.975 7.42236 15.15 7.42236 14.175C7.42236 13.2 7.94736 12.375 8.62236 12.375C9.29736 12.375 9.82236 13.2 9.82236 14.175Z" fill="#633001"/>
<path d="M18.1473 14.175C18.1473 15.15 17.6223 15.975 16.9473 15.975C16.2723 15.975 15.7473 15.15 15.7473 14.175C15.7473 13.2 16.2723 12.375 16.9473 12.375C17.6223 12.375 18.1473 13.2 18.1473 14.175Z" fill="#633001"/>
</g>
<defs>
<clipPath id="clip0_5_167">
<rect width="24" height="24" fill="white" transform="translate(0.859863)"/>
</clipPath>
</defs>
</svg>
