<svg width="22" height="24" viewBox="0 0 22 24" fill="none" xmlns="http://www.w3.org/2000/svg">
<g clip-path="url(#clip0_5_173)">
<path d="M9.0332 5.4613C8.77314 5.42415 8.76076 5.41177 8.8846 5.39938C9.11989 5.36223 9.66478 5.41177 10.0487 5.49845C10.9403 5.70898 11.7453 6.25387 12.5998 7.20743L12.8227 7.46749L13.1447 7.41796C14.5193 7.19505 15.931 7.36842 17.1075 7.91331C17.4295 8.06192 17.9372 8.35913 17.9991 8.43344C18.0239 8.45821 18.0611 8.6192 18.0858 8.78019C18.1725 9.36223 18.1354 9.79567 17.9496 10.13C17.8505 10.3158 17.8505 10.3653 17.9125 10.5263C17.962 10.6502 18.1106 10.7368 18.2468 10.7368C18.544 10.7368 18.8536 10.2663 19.0022 9.60991L19.0642 9.34985L19.1756 9.47369C19.8072 10.1796 20.3026 11.1579 20.3769 11.8514L20.4016 12.0372L20.2902 11.8762C20.1044 11.5913 19.931 11.4056 19.6957 11.2446C19.2747 10.9598 18.8289 10.8731 17.6524 10.8111C16.5874 10.7492 15.9806 10.6625 15.3861 10.4644C14.3707 10.13 13.8505 9.6966 12.6493 8.09907C12.1168 7.39319 11.7824 7.00929 11.4481 6.68731C10.7174 5.98143 9.98676 5.60991 9.0332 5.4613Z" fill="#FF007A"/>
<path d="M18.2592 7.03406C18.284 6.56347 18.3459 6.25387 18.4821 5.96904C18.5317 5.85759 18.5812 5.75851 18.5936 5.75851C18.606 5.75851 18.5812 5.8452 18.544 5.94427C18.445 6.21672 18.4326 6.60062 18.4945 7.03406C18.5812 7.59133 18.6184 7.66564 19.2128 8.27245C19.4852 8.55728 19.8072 8.91641 19.931 9.06502L20.1416 9.33746L19.931 9.13932C19.671 8.89164 19.0766 8.42105 18.9403 8.35913C18.8536 8.3096 18.8413 8.3096 18.7793 8.37152C18.7298 8.42105 18.7174 8.49536 18.7174 8.85449C18.705 9.41177 18.6307 9.75851 18.445 10.1176C18.3459 10.3034 18.3335 10.2663 18.4202 10.0557C18.4821 9.89474 18.4945 9.82043 18.4945 9.28793C18.4945 8.21053 18.3707 7.95046 17.6153 7.51703C17.4295 7.40557 17.1075 7.24458 16.9218 7.1579C16.7236 7.07121 16.575 6.9969 16.5874 6.9969C16.6122 6.97214 17.3428 7.18266 17.6276 7.3065C18.0611 7.47988 18.1354 7.49226 18.1849 7.47988C18.2221 7.44273 18.2468 7.34365 18.2592 7.03406Z" fill="#FF007A"/>
<path d="M9.54098 8.87926C9.02086 8.16099 8.68649 7.04644 8.76079 6.21672L8.78556 5.95666L8.9094 5.98143C9.13231 6.01858 9.51621 6.16718 9.70197 6.27864C10.1973 6.57585 10.4202 6.98452 10.6308 8C10.6927 8.29721 10.7794 8.64396 10.8165 8.75542C10.8784 8.94118 11.1137 9.37461 11.3119 9.64706C11.4481 9.8452 11.3614 9.94427 11.0518 9.91951C10.5812 9.86997 9.94965 9.43653 9.54098 8.87926Z" fill="#FF007A"/>
<path d="M17.6277 14.2663C15.1757 13.2755 14.3088 12.4211 14.3088 10.9721C14.3088 10.7616 14.3212 10.5882 14.3212 10.5882C14.3336 10.5882 14.4203 10.6625 14.5317 10.7492C15.0271 11.1455 15.5844 11.3189 17.1324 11.5418C18.0364 11.678 18.5565 11.7771 19.0271 11.9381C20.5256 12.4334 21.4543 13.4489 21.6773 14.8235C21.7392 15.2198 21.702 15.9752 21.603 16.3715C21.5163 16.6811 21.2686 17.2508 21.2067 17.2632C21.1943 17.2632 21.1695 17.2012 21.1695 17.1022C21.1448 16.582 20.8847 16.0867 20.4513 15.7028C19.9311 15.257 19.2624 14.9226 17.6277 14.2663Z" fill="#FF007A"/>
<path d="M15.8939 14.6749C15.8692 14.4892 15.8072 14.2539 15.7701 14.1548L15.7082 13.969L15.8196 14.1053C15.9806 14.291 16.1045 14.5139 16.2159 14.8235C16.3026 15.0588 16.3026 15.1331 16.3026 15.517C16.3026 15.8885 16.2902 15.9752 16.2159 16.1858C16.0921 16.5201 15.9435 16.7554 15.6958 17.0155C15.25 17.4737 14.6679 17.7214 13.8382 17.8328C13.6896 17.8452 13.2685 17.8824 12.897 17.9071C11.9682 17.9567 11.349 18.0557 10.7918 18.2539C10.7175 18.2786 10.6432 18.3034 10.6308 18.291C10.606 18.2663 10.9899 18.0433 11.2995 17.8947C11.7329 17.6842 12.1788 17.5728 13.1571 17.3994C13.6401 17.3251 14.1354 17.226 14.2593 17.1765C15.4853 16.7926 16.0921 15.839 15.8939 14.6749Z" fill="#FF007A"/>
<path d="M17.0208 16.6687C16.6989 15.9628 16.6246 15.2941 16.7979 14.6625C16.8227 14.6006 16.8475 14.5387 16.8722 14.5387C16.897 14.5387 16.9713 14.5759 17.0456 14.6254C17.1942 14.7245 17.5038 14.8978 18.2964 15.3313C19.2995 15.8762 19.8691 16.2972 20.2654 16.7802C20.6122 17.2012 20.8227 17.6842 20.9218 18.2786C20.9837 18.613 20.9465 19.418 20.8599 19.7523C20.5874 20.805 19.9682 21.6471 19.0642 22.13C18.928 22.2043 18.8165 22.2539 18.8041 22.2539C18.7917 22.2539 18.8413 22.13 18.9156 21.9814C19.2128 21.3498 19.2499 20.743 19.027 20.0619C18.8908 19.6409 18.606 19.1331 18.0363 18.2786C17.3552 17.2879 17.1942 17.0279 17.0208 16.6687Z" fill="#FF007A"/>
<path d="M7.79485 20.4582C8.71126 19.6904 9.8382 19.1455 10.8784 18.9721C11.3243 18.8978 12.0673 18.9226 12.476 19.0341C13.1323 19.2074 13.7267 19.5789 14.0363 20.0372C14.3336 20.483 14.4698 20.8669 14.606 21.7214C14.6555 22.0557 14.7175 22.4025 14.7298 22.4768C14.8289 22.9226 15.0271 23.2693 15.2747 23.4551C15.6586 23.7399 16.3274 23.7523 16.9837 23.5046C17.0952 23.4675 17.1942 23.4303 17.1942 23.4427C17.219 23.4675 16.8846 23.6904 16.6617 23.8019C16.3521 23.9628 16.1044 24.0124 15.7701 24.0124C15.1757 24.0124 14.6679 23.7028 14.2592 23.0836C14.1726 22.9598 13.9992 22.6006 13.8506 22.2663C13.4171 21.2632 13.1942 20.9659 12.6865 20.6316C12.2407 20.3467 11.671 20.2848 11.2376 20.4954C10.6679 20.7678 10.5193 21.4985 10.9156 21.9443C11.0766 22.13 11.3738 22.2786 11.6215 22.3158C12.0797 22.3777 12.476 22.0186 12.476 21.5604C12.476 21.2632 12.3645 21.0898 12.0673 20.9536C11.671 20.7802 11.2376 20.9783 11.25 21.3622C11.25 21.5232 11.3243 21.6223 11.4853 21.6966C11.5843 21.7461 11.5843 21.7461 11.51 21.7337C11.1509 21.6594 11.0642 21.2136 11.349 20.9288C11.6958 20.582 12.4264 20.7307 12.6741 21.2136C12.7732 21.4118 12.7856 21.808 12.6989 22.0557C12.4883 22.6006 11.8939 22.8854 11.2871 22.7245C10.8784 22.613 10.7051 22.5015 10.2097 21.9938C9.34284 21.1022 9.00847 20.9288 7.77008 20.743L7.53479 20.7059L7.79485 20.4582Z" fill="#FF007A"/>
<path fill-rule="evenodd" clip-rule="evenodd" d="M1.28061 0.532508C4.16606 4.03715 8.61188 9.48607 8.83479 9.78328C9.02055 10.031 8.94625 10.2663 8.63665 10.4396C8.46327 10.5387 8.10414 10.6378 7.93077 10.6378C7.73262 10.6378 7.49733 10.5387 7.33634 10.3777C7.22488 10.2663 6.74191 9.56037 5.65213 7.86378C4.82241 6.56347 4.11653 5.48607 4.10414 5.47368C4.05461 5.44892 4.05461 5.44892 5.56544 8.14861C6.519 9.8452 6.8286 10.452 6.8286 10.5263C6.8286 10.6873 6.77906 10.774 6.58092 10.9969C6.24656 11.3684 6.09795 11.7895 5.98649 12.6687C5.86266 13.6471 5.52829 14.3406 4.57473 15.517C4.01745 16.2105 3.93077 16.3344 3.79454 16.6192C3.62117 16.9659 3.57163 17.1641 3.54687 17.6099C3.5221 18.0805 3.57163 18.3777 3.70786 18.8235C3.8317 19.2198 3.96792 19.4799 4.30228 19.9876C4.58711 20.4334 4.76049 20.7678 4.76049 20.8916C4.76049 20.9907 4.78526 20.9907 5.23108 20.8916C6.29609 20.644 7.17535 20.2229 7.65832 19.7028C7.95553 19.3808 8.02984 19.2074 8.02984 18.7616C8.02984 18.4768 8.01745 18.4149 7.94315 18.2415C7.81931 17.969 7.58402 17.7461 7.07628 17.3994C6.40755 16.9412 6.12272 16.5697 6.04841 16.0743C5.98649 15.6533 6.0608 15.3684 6.43231 14.5882C6.81622 13.7833 6.91529 13.4489 6.97721 12.6316C7.01436 12.1115 7.07628 11.9009 7.22488 11.7399C7.38588 11.5666 7.5221 11.5046 7.906 11.4551C8.53758 11.3684 8.94625 11.2074 9.26823 10.8978C9.55306 10.6378 9.6769 10.3777 9.68928 9.99381L9.70166 9.70898L9.54067 9.5356C8.95863 8.86687 0.896711 0 0.85956 0C0.847176 0 1.04532 0.235294 1.28061 0.532508ZM5.08247 18.1424C5.21869 17.9071 5.14439 17.6099 4.92148 17.4613C4.71095 17.3251 4.38897 17.387 4.38897 17.5728C4.38897 17.6223 4.41374 17.6718 4.48804 17.6966C4.5995 17.7585 4.61188 17.8204 4.52519 17.9567C4.43851 18.0929 4.43851 18.2167 4.54996 18.3034C4.72334 18.4396 4.95863 18.3653 5.08247 18.1424Z" fill="#FF007A"/>
<path fill-rule="evenodd" clip-rule="evenodd" d="M10.0983 11.6285C9.80106 11.7152 9.51623 12.0372 9.42954 12.3591C9.38001 12.5573 9.40478 12.9164 9.49146 13.0279C9.62769 13.2012 9.75153 13.2508 10.0983 13.2508C10.7794 13.2508 11.3614 12.9536 11.4234 12.5944C11.4853 12.2972 11.2252 11.8885 10.8661 11.7028C10.6803 11.6037 10.2964 11.5666 10.0983 11.6285ZM10.8908 12.2477C10.9899 12.0991 10.9528 11.9381 10.767 11.8266C10.4326 11.6161 9.9249 11.7895 9.9249 12.1115C9.9249 12.2724 10.185 12.4458 10.4326 12.4458C10.5936 12.4458 10.8165 12.3468 10.8908 12.2477Z" fill="#FF007A"/>
</g>
<defs>
<clipPath id="clip0_5_173">
<rect width="20.8421" height="24" fill="white" transform="translate(0.859863)"/>
</clipPath>
</defs>
</svg>
